<mxfile host="app.diagrams.net" modified="2022-12-15T07:12:29.190Z" agent="5.0 (Windows NT 10.0; Win64; x64) AppleWebKit/537.36 (KHTML, like Gecko) Chrome/108.0.0.0 Safari/537.36" etag="AGIoh48dwYYCQIw0XHDI" version="20.6.2" type="github">
  <diagram id="kgpKYQtTHZ0yAKxKKP6v" name="Page-1">
    <mxGraphModel dx="1182" dy="754" grid="1" gridSize="10" guides="1" tooltips="1" connect="1" arrows="1" fold="1" page="1" pageScale="1" pageWidth="850" pageHeight="1100" math="0" shadow="0">
      <root>
        <mxCell id="0" />
        <mxCell id="1" parent="0" />
        <mxCell id="lSvCyG7E1m2ItCGMphs5-1" value="newpayment" style="shape=umlLifeline;perimeter=lifelinePerimeter;container=1;collapsible=0;recursiveResize=0;rounded=0;shadow=0;strokeWidth=1;" vertex="1" parent="1">
          <mxGeometry x="130" y="80" width="100" height="390" as="geometry" />
        </mxCell>
        <mxCell id="lSvCyG7E1m2ItCGMphs5-2" value="" style="points=[];perimeter=orthogonalPerimeter;rounded=0;shadow=0;strokeWidth=1;" vertex="1" parent="lSvCyG7E1m2ItCGMphs5-1">
          <mxGeometry x="45" y="70" width="10" height="300" as="geometry" />
        </mxCell>
        <mxCell id="lSvCyG7E1m2ItCGMphs5-3" value="click &quot;pay&quot;" style="verticalAlign=bottom;startArrow=oval;endArrow=block;startSize=8;shadow=0;strokeWidth=1;" edge="1" parent="lSvCyG7E1m2ItCGMphs5-1" target="lSvCyG7E1m2ItCGMphs5-2">
          <mxGeometry relative="1" as="geometry">
            <mxPoint x="-15" y="70" as="sourcePoint" />
          </mxGeometry>
        </mxCell>
        <mxCell id="lSvCyG7E1m2ItCGMphs5-4" value="ezpaycontroller" style="shape=umlLifeline;perimeter=lifelinePerimeter;container=1;collapsible=0;recursiveResize=0;rounded=0;shadow=0;strokeWidth=1;" vertex="1" parent="1">
          <mxGeometry x="300" y="80" width="100" height="300" as="geometry" />
        </mxCell>
        <mxCell id="lSvCyG7E1m2ItCGMphs5-5" value="" style="points=[];perimeter=orthogonalPerimeter;rounded=0;shadow=0;strokeWidth=1;" vertex="1" parent="lSvCyG7E1m2ItCGMphs5-4">
          <mxGeometry x="45" y="80" width="10" height="200" as="geometry" />
        </mxCell>
        <mxCell id="lSvCyG7E1m2ItCGMphs5-6" value="" style="html=1;points=[];perimeter=orthogonalPerimeter;" vertex="1" parent="lSvCyG7E1m2ItCGMphs5-4">
          <mxGeometry x="42" y="120" width="10" height="130" as="geometry" />
        </mxCell>
        <mxCell id="lSvCyG7E1m2ItCGMphs5-7" value="savepayments" style="edgeStyle=orthogonalEdgeStyle;html=1;align=left;spacingLeft=2;endArrow=block;rounded=0;entryX=1;entryY=0;" edge="1" parent="lSvCyG7E1m2ItCGMphs5-4" target="lSvCyG7E1m2ItCGMphs5-6">
          <mxGeometry relative="1" as="geometry">
            <mxPoint x="50" y="100" as="sourcePoint" />
            <Array as="points">
              <mxPoint x="80" y="100" />
            </Array>
          </mxGeometry>
        </mxCell>
        <mxCell id="lSvCyG7E1m2ItCGMphs5-8" value="createpay" style="verticalAlign=bottom;endArrow=block;entryX=0;entryY=0;shadow=0;strokeWidth=1;" edge="1" parent="1" source="lSvCyG7E1m2ItCGMphs5-2" target="lSvCyG7E1m2ItCGMphs5-5">
          <mxGeometry relative="1" as="geometry">
            <mxPoint x="275" y="160" as="sourcePoint" />
          </mxGeometry>
        </mxCell>
        <mxCell id="lSvCyG7E1m2ItCGMphs5-9" value="customer" style="shape=umlActor;verticalLabelPosition=bottom;verticalAlign=top;html=1;" vertex="1" parent="1">
          <mxGeometry x="70" y="130" width="30" height="60" as="geometry" />
        </mxCell>
        <mxCell id="lSvCyG7E1m2ItCGMphs5-10" value="biz_tpayments" style="shape=umlLifeline;participant=umlEntity;perimeter=lifelinePerimeter;whiteSpace=wrap;html=1;container=1;collapsible=0;recursiveResize=0;verticalAlign=top;spacingTop=36;outlineConnect=0;" vertex="1" parent="1">
          <mxGeometry x="540" y="80" width="40" height="300" as="geometry" />
        </mxCell>
        <mxCell id="lSvCyG7E1m2ItCGMphs5-11" value="biz_tfapiao" style="shape=umlLifeline;participant=umlEntity;perimeter=lifelinePerimeter;whiteSpace=wrap;html=1;container=1;collapsible=0;recursiveResize=0;verticalAlign=top;spacingTop=36;outlineConnect=0;" vertex="1" parent="1">
          <mxGeometry x="620" y="80" width="40" height="300" as="geometry" />
        </mxCell>
        <mxCell id="lSvCyG7E1m2ItCGMphs5-12" value="biz_tinvoicepaymentmapping" style="shape=umlLifeline;participant=umlEntity;perimeter=lifelinePerimeter;whiteSpace=wrap;html=1;container=1;collapsible=0;recursiveResize=0;verticalAlign=top;spacingTop=36;outlineConnect=0;" vertex="1" parent="1">
          <mxGeometry x="740" y="80" width="40" height="300" as="geometry" />
        </mxCell>
        <mxCell id="lSvCyG7E1m2ItCGMphs5-13" value="biz_tinvoice" style="shape=umlLifeline;participant=umlEntity;perimeter=lifelinePerimeter;whiteSpace=wrap;html=1;container=1;collapsible=0;recursiveResize=0;verticalAlign=top;spacingTop=36;outlineConnect=0;" vertex="1" parent="1">
          <mxGeometry x="460" y="80" width="40" height="300" as="geometry" />
        </mxCell>
        <mxCell id="lSvCyG7E1m2ItCGMphs5-14" value="insert" style="edgeStyle=orthogonalEdgeStyle;rounded=0;orthogonalLoop=1;jettySize=auto;html=1;" edge="1" parent="1" source="lSvCyG7E1m2ItCGMphs5-6" target="lSvCyG7E1m2ItCGMphs5-10">
          <mxGeometry relative="1" as="geometry">
            <Array as="points">
              <mxPoint x="410" y="230" />
              <mxPoint x="410" y="230" />
            </Array>
          </mxGeometry>
        </mxCell>
        <mxCell id="lSvCyG7E1m2ItCGMphs5-15" style="edgeStyle=orthogonalEdgeStyle;rounded=0;orthogonalLoop=1;jettySize=auto;html=1;" edge="1" parent="1" source="lSvCyG7E1m2ItCGMphs5-6" target="lSvCyG7E1m2ItCGMphs5-11">
          <mxGeometry relative="1" as="geometry">
            <Array as="points">
              <mxPoint x="560" y="255" />
              <mxPoint x="560" y="255" />
            </Array>
          </mxGeometry>
        </mxCell>
        <mxCell id="lSvCyG7E1m2ItCGMphs5-16" value="update fapiao paymentstatus=2" style="edgeLabel;html=1;align=center;verticalAlign=middle;resizable=0;points=[];" vertex="1" connectable="0" parent="lSvCyG7E1m2ItCGMphs5-15">
          <mxGeometry x="-0.3878" y="-2" relative="1" as="geometry">
            <mxPoint x="20" as="offset" />
          </mxGeometry>
        </mxCell>
        <mxCell id="lSvCyG7E1m2ItCGMphs5-17" style="edgeStyle=orthogonalEdgeStyle;rounded=0;orthogonalLoop=1;jettySize=auto;html=1;" edge="1" parent="1" source="lSvCyG7E1m2ItCGMphs5-6" target="lSvCyG7E1m2ItCGMphs5-12">
          <mxGeometry relative="1" as="geometry">
            <Array as="points">
              <mxPoint x="430" y="290" />
              <mxPoint x="430" y="290" />
            </Array>
          </mxGeometry>
        </mxCell>
        <mxCell id="lSvCyG7E1m2ItCGMphs5-18" value="insert" style="edgeLabel;html=1;align=center;verticalAlign=middle;resizable=0;points=[];" vertex="1" connectable="0" parent="lSvCyG7E1m2ItCGMphs5-17">
          <mxGeometry x="-0.3409" y="1" relative="1" as="geometry">
            <mxPoint as="offset" />
          </mxGeometry>
        </mxCell>
        <mxCell id="lSvCyG7E1m2ItCGMphs5-19" value="update invoice paymentstatus=2&lt;br&gt;&lt;span style=&quot;font-size: 11px;&quot;&gt;INITIATED&lt;/span&gt;" style="edgeStyle=orthogonalEdgeStyle;rounded=0;orthogonalLoop=1;jettySize=auto;html=1;" edge="1" parent="1" source="lSvCyG7E1m2ItCGMphs5-6" target="lSvCyG7E1m2ItCGMphs5-13">
          <mxGeometry x="0.5373" y="-10" relative="1" as="geometry">
            <Array as="points">
              <mxPoint x="420" y="320" />
              <mxPoint x="420" y="320" />
            </Array>
            <mxPoint as="offset" />
          </mxGeometry>
        </mxCell>
        <mxCell id="lSvCyG7E1m2ItCGMphs5-20" style="edgeStyle=orthogonalEdgeStyle;rounded=0;orthogonalLoop=1;jettySize=auto;html=1;" edge="1" parent="1" source="lSvCyG7E1m2ItCGMphs5-5" target="lSvCyG7E1m2ItCGMphs5-1">
          <mxGeometry relative="1" as="geometry">
            <Array as="points">
              <mxPoint x="250" y="350" />
              <mxPoint x="250" y="350" />
            </Array>
          </mxGeometry>
        </mxCell>
        <mxCell id="lSvCyG7E1m2ItCGMphs5-21" value="ezpay" style="shape=umlLifeline;participant=umlBoundary;perimeter=lifelinePerimeter;whiteSpace=wrap;html=1;container=1;collapsible=0;recursiveResize=0;verticalAlign=top;spacingTop=36;outlineConnect=0;" vertex="1" parent="1">
          <mxGeometry x="870" y="80" width="50" height="420" as="geometry" />
        </mxCell>
        <mxCell id="lSvCyG7E1m2ItCGMphs5-22" value="chargecenter" style="shape=umlLifeline;perimeter=lifelinePerimeter;whiteSpace=wrap;html=1;container=1;collapsible=0;recursiveResize=0;outlineConnect=0;" vertex="1" parent="1">
          <mxGeometry x="930" y="80" width="100" height="410" as="geometry" />
        </mxCell>
        <mxCell id="lSvCyG7E1m2ItCGMphs5-23" value="" style="html=1;points=[];perimeter=orthogonalPerimeter;" vertex="1" parent="lSvCyG7E1m2ItCGMphs5-22">
          <mxGeometry x="50" y="330" width="10" height="80" as="geometry" />
        </mxCell>
        <mxCell id="lSvCyG7E1m2ItCGMphs5-24" style="edgeStyle=orthogonalEdgeStyle;rounded=0;orthogonalLoop=1;jettySize=auto;html=1;" edge="1" parent="1" source="lSvCyG7E1m2ItCGMphs5-2" target="lSvCyG7E1m2ItCGMphs5-21">
          <mxGeometry relative="1" as="geometry">
            <Array as="points">
              <mxPoint x="350" y="400" />
              <mxPoint x="350" y="400" />
            </Array>
          </mxGeometry>
        </mxCell>
        <mxCell id="lSvCyG7E1m2ItCGMphs5-25" value="submit" style="edgeLabel;html=1;align=center;verticalAlign=middle;resizable=0;points=[];" vertex="1" connectable="0" parent="lSvCyG7E1m2ItCGMphs5-24">
          <mxGeometry x="-0.0698" y="1" relative="1" as="geometry">
            <mxPoint as="offset" />
          </mxGeometry>
        </mxCell>
        <mxCell id="lSvCyG7E1m2ItCGMphs5-26" value="redirect" style="html=1;verticalAlign=bottom;startArrow=oval;endArrow=block;startSize=8;rounded=0;" edge="1" parent="1" source="lSvCyG7E1m2ItCGMphs5-21" target="lSvCyG7E1m2ItCGMphs5-23">
          <mxGeometry relative="1" as="geometry">
            <mxPoint x="910" y="410" as="sourcePoint" />
          </mxGeometry>
        </mxCell>
      </root>
    </mxGraphModel>
  </diagram>
</mxfile>
